<?xml version="1.0" encoding="utf-8"?>
<!-- Generator: Adobe Illustrator 21.1.0, SVG Export Plug-In . SVG Version: 6.00 Build 0)  -->
<!DOCTYPE svg PUBLIC "-//W3C//DTD SVG 1.1//EN" "http://www.w3.org/Graphics/SVG/1.1/DTD/svg11.dtd">
<svg version="1.1" xmlns="http://www.w3.org/2000/svg" xmlns:xlink="http://www.w3.org/1999/xlink" x="0px" y="0px"
	 viewBox="0 0 360 360" enable-background="new 0 0 360 360" xml:space="preserve">
<g id="Layer_5" display="none">
</g>
<g id="Layer_6" display="none">
</g>
<g id="lines">
	<g id="XMLID_28_">
		<g>
			<polyline fill="none" stroke="#000000" stroke-linejoin="bevel" points="359,6.5 4,180 359,353.5 			"/>
			<g>
				<polygon points="354.3,4.3 354,5.2 358.7,6.6 356.9,11.2 357.8,11.6 360,6 				"/>
			</g>
			<g>
				<polygon points="354.3,355.7 354,354.8 358.7,353.4 356.9,348.8 357.8,348.4 360,354 				"/>
			</g>
		</g>
	</g>
	<g id="XMLID_41_">
		<g>
			<polyline fill="none" stroke="#000000" stroke-linejoin="bevel" points="359,64.3 4,180 359,295.7 			"/>
			<g>
				<polygon points="354.6,61.5 354.1,62.4 358.6,64.5 356.2,68.8 357.1,69.3 360,64 				"/>
			</g>
			<g>
				<polygon points="354.6,298.5 354.1,297.6 358.6,295.5 356.2,291.2 357.1,290.7 360,296 				"/>
			</g>
		</g>
	</g>
	<g id="XMLID_94_">
		<g>
			<polyline fill="none" stroke="#000000" stroke-linejoin="bevel" points="358.9,122.2 4,180 358.9,237.8 			"/>
			<g>
				<polygon points="355,118.7 354.4,119.5 358.6,122.2 355.5,126.1 356.3,126.7 360,122 				"/>
			</g>
			<g>
				<polygon points="355,241.3 354.4,240.5 358.6,237.8 355.5,233.9 356.3,233.3 360,238 				"/>
			</g>
		</g>
	</g>
	<g id="XMLID_27_">
		<g>
			<line fill="none" stroke="#000000" stroke-linejoin="bevel" x1="4" y1="180" x2="358.9" y2="180"/>
			<g>
				<polygon points="355.6,184.1 354.9,183.4 358.5,180 354.9,176.6 355.6,175.9 360,180 				"/>
			</g>
		</g>
	</g>
</g>
<g id="dots">
	<circle id="XMLID_236_" cx="5" cy="180" r="5"/>
</g>
<g id="guides">
</g>
<g id="Layer_4" display="none">
</g>
</svg>
