<?xml version="1.0" encoding="utf-8"?>
<!-- Generator: Adobe Illustrator 21.1.0, SVG Export Plug-In . SVG Version: 6.00 Build 0)  -->
<!DOCTYPE svg PUBLIC "-//W3C//DTD SVG 1.1//EN" "http://www.w3.org/Graphics/SVG/1.1/DTD/svg11.dtd">
<svg version="1.1" xmlns="http://www.w3.org/2000/svg" xmlns:xlink="http://www.w3.org/1999/xlink" x="0px" y="0px"
	 viewBox="0 0 360 360" enable-background="new 0 0 360 360" xml:space="preserve">
<g id="Layer_5" display="none">
</g>
<g id="Layer_6" display="none">
</g>
<g id="lines">
	<polyline id="XMLID_63_" fill="none" stroke="#000000" stroke-miterlimit="10" points="2,6 56,6 60,10 60,59.5 64.5,64 	"/>
	<polyline id="XMLID_12_" fill="none" stroke="#000000" stroke-miterlimit="10" points="116,122 120,126 120,176 124,180 	"/>
	<polyline id="XMLID_5_" fill="none" stroke="#000000" stroke-miterlimit="10" points="2,296 296,296 300,292 300,242 304,238 	"/>
	<polyline id="XMLID_6_" fill="none" stroke="#000000" stroke-miterlimit="10" points="2,354 236,354 240,350 240,300.5 244.5,296 	
		"/>
	<g id="XMLID_8_">
		<g>
			<line fill="none" stroke="#000000" stroke-miterlimit="10" x1="304" y1="238" x2="358.9" y2="238"/>
			<g>
				<polygon points="355.6,242.1 354.9,241.4 358.5,238 354.9,234.6 355.6,233.9 360,238 				"/>
			</g>
		</g>
	</g>
	<g id="XMLID_9_">
		<g>
			<line fill="none" stroke="#000000" stroke-miterlimit="10" x1="2" y1="64" x2="358.9" y2="64"/>
			<g>
				<polygon points="355.6,68.1 354.9,67.4 358.5,64 354.9,60.6 355.6,59.9 360,64 				"/>
			</g>
		</g>
	</g>
	<polyline id="XMLID_1_" fill="none" stroke="#000000" stroke-miterlimit="10" points="2,122 176,122 180,118 180,68 184,64 	"/>
	<polyline id="XMLID_10_" fill="none" stroke="#000000" stroke-miterlimit="10" points="2,180 296,180 300,184 300,234 304,238 	"/>
	<polyline id="XMLID_3_" fill="none" stroke="#000000" stroke-miterlimit="10" points="2,238 63,238 67,234 67,184 71,180 	"/>
</g>
<g id="dots">
	<circle id="XMLID_22_" cx="2" cy="6" r="2"/>
	<circle id="XMLID_23_" cx="2" cy="64" r="2"/>
	<circle id="XMLID_24_" cx="2" cy="122" r="2"/>
	<circle id="XMLID_35_" cx="2" cy="180" r="2"/>
	<circle id="XMLID_36_" cx="2" cy="238" r="2"/>
	<circle id="XMLID_37_" cx="2" cy="296" r="2"/>
	<circle id="XMLID_38_" cx="2" cy="354" r="2"/>
</g>
<g id="guides">
</g>
<g id="Layer_4" display="none">
</g>
</svg>
