<?xml version="1.0" encoding="utf-8"?>
<!-- Generator: Adobe Illustrator 19.2.1, SVG Export Plug-In . SVG Version: 6.00 Build 0)  -->
<svg version="1.1" id="Layer_1" xmlns="http://www.w3.org/2000/svg" xmlns:xlink="http://www.w3.org/1999/xlink" x="0px" y="0px"
	 width="1043.4px" height="144.3px" viewBox="0 0 1043.4 144.3" style="enable-background:new 0 0 1043.4 144.3;"
	 xml:space="preserve">
<path d="M1013.7,17.5v35.9c-4.7-4.4-12-7.3-21.3-7.3C967.1,46,948,66.6,948,99.7c0,25.7,14,44.6,36.6,44.6
	c13.1,0,21.8-7.3,29.1-16.7l-0.7,16.7h2.7l27.7-6.7v-3.8l-4.7-0.5c-8.2-0.9-8.6-2.2-8.6-8.4V0h-2.2l-26,9.1v2L1013.7,17.5z
	 M992.4,51.1c12.4,0,21.3,10.2,21.3,26.8v45.5c-5.3,5.8-12.2,8.9-20.9,8.9c-19.3,0-29.3-17.7-29.3-39.9
	C963.5,67.7,974.8,51.1,992.4,51.1 M897.8,144.3c24.2,0,43.3-20.2,43.3-51.5c0-27.5-16.7-46.8-42.2-46.8
	c-24.2,0-43.3,20.2-43.3,51.5C855.6,125.4,872.3,144.3,897.8,144.3 M898.7,138.7c-17.7,0-25.8-21.7-25.8-45.7
	c0-24.6,8.9-41.3,25.1-41.3c17.7,0,25.8,21.7,25.8,45.7C923.8,121.9,914.9,138.7,898.7,138.7 M805.3,144.3
	c24.2,0,43.3-20.2,43.3-51.5c0-27.5-16.7-46.8-42.2-46.8c-24.2,0-43.3,20.2-43.3,51.5C763.1,125.4,779.9,144.3,805.3,144.3
	 M806.2,138.7c-17.7,0-25.8-21.7-25.8-45.7c0-24.6,8.9-41.3,25.1-41.3c17.7,0,25.8,21.7,25.8,45.7
	C831.4,121.9,822.4,138.7,806.2,138.7 M748,0h-2.2l-14.4,5.8C725.6,2,719.1,0,710.9,0c-20,0-34.6,12.4-34.6,34.6v12.2l-13.5,5.5v2.5
	h13.5v73.9c0,7.1-2.9,8.6-12.6,9.1v4.7h41.5v-4.7c-9.6-0.5-12.6-2-12.6-9.1V54.8h23.5v-6.9h-23.5V30c0-17.3,5.8-25.5,17.8-25.5
	c11.1,0,17.7,7.5,21.1,16v108.1c0,7.1-2.9,8.6-12.6,9.1v4.7h41.5v-4.7c-9.6-0.5-12.6-2-12.6-9.1L748,0L748,0z M590.8,51.9
	c14.2,0,19.8,12.4,19.8,28.8h-44C568.4,64.4,576.8,51.9,590.8,51.9 M592.2,46c-23.5,0-41,22-41,51.9c0,25.5,14.7,46.4,40.6,46.4
	c18.9,0,31.5-11.5,35.9-27.3l-2.2-1.1c-6.4,10-14.2,16.2-27.3,16.2c-18.9,0-33.5-16.7-32.2-46.2h60.4v-3.8
	C626.4,61.7,614.6,46,592.2,46 M462.5,128.7c0,7.1-2.9,8.6-12.6,9.1v4.7h41.5v-4.7c-9.6-0.5-12.6-2-12.6-9.1v-61
	c6.9-6,15.8-11.1,25.1-11.1c10.7,0,16.2,5.6,16.2,19.1v53c0,7.1-2.9,8.6-12.6,9.1v4.7h41.5v-4.7c-9.6-0.5-12.6-2-12.6-9.1V75.9
	c0-19.7-7.8-29.8-24.6-29.8c-14,0-24.6,7.8-33.1,17.3V0h-2.2l-26,9.1v2l11.8,6.4L462.5,128.7L462.5,128.7z M420.1,25.3h-3.6
	c-6,11.5-14.4,21.3-24.8,26.9v2.5H404v63c0,19.5,10,26.6,23.1,26.6c11.3,0,19.3-6.6,24-13.5l-1.6-2.2c-4.9,3.6-8.7,5.3-14.4,5.3
	c-10.2,0-15.1-5.5-15.1-18.9V54.8h26v-6.9h-26L420.1,25.3L420.1,25.3z M329.2,75.9c10.2-12.4,17.8-13.3,28.9-13.3h2.5V49
	c-1.3-1.6-3.6-2.9-6.9-2.9c-10.2,0-14.6,7.3-24.6,25.8L330,46h-2.2L301,55.1v2l11.8,6.4v65.2c0,7.1-2.9,8.6-12.6,9.1v4.7h45.1v-4.7
	c-12-0.5-16.2-2-16.2-9.1L329.2,75.9L329.2,75.9z M261,51.9c14.2,0,19.8,12.4,19.8,28.8h-44C238.6,64.4,247,51.9,261,51.9 M262.4,46
	c-23.5,0-40.9,22-40.9,51.9c0,25.5,14.7,46.4,40.6,46.4c18.9,0,31.5-11.5,35.9-27.3l-2.2-1.1c-6.4,10-14.2,16.2-27.3,16.2
	c-18.9,0-33.5-16.7-32.2-46.2h60.4v-3.8C296.7,61.7,284.8,46,262.4,46 M191.3,25.3h-3.6c-6,11.5-14.4,21.3-24.8,26.9v2.5h12.4v63
	c0,19.5,10,26.6,23.1,26.6c11.3,0,19.3-6.6,24-13.5l-1.6-2.2c-4.9,3.6-8.7,5.3-14.4,5.3c-10.2,0-15.1-5.5-15.1-18.9V54.8h26v-6.9
	h-26L191.3,25.3L191.3,25.3z M146.7,54.8h23.5v-6.9h-23.5V24.4c0-13.1,4.4-20,12-20c6.4,0,8.7,4.7,8.7,11.6c0,2.5-0.2,4.4-0.5,6.2
	h9.5c3.3-1.8,5.3-5.1,5.3-9.1c0-8.6-6.6-13.1-19.1-13.1c-19.7,0-32.2,12.2-32.2,34.6v12.2l-13.5,5.5v2.5h13.5v73.9
	c0,7.1-2.9,8.6-12.6,9.1v4.7h45.1v-4.7c-12-0.5-16.2-2-16.2-9.1V54.8z M56.2,32.8l24,59.2H32.9L56.2,32.8z M92.8,122.5
	c1.1,2.7,1.8,5.1,1.8,7.3c0,5.6-4.2,7.5-16.4,7.8v4.9h46.6v-4.9c-4.9-0.7-8.7-1.8-10.7-6.7L65.7,13.1H47.5l5.1,12L10.7,130.9
	c-1.8,4.9-5.6,6-10.7,6.7v4.9h35.9v-4.9c-12.4-0.4-16.6-2.4-16.6-8c0-2,0.7-4.6,1.8-7.3l9.6-24.6h51.9L92.8,122.5z"/>
</svg>
