<?xml version="1.0" encoding="utf-8"?>
<!-- Generator: Adobe Illustrator 15.1.0, SVG Export Plug-In . SVG Version: 6.00 Build 0)  -->
<!DOCTYPE svg PUBLIC "-//W3C//DTD SVG 1.1//EN" "http://www.w3.org/Graphics/SVG/1.1/DTD/svg11.dtd">
<svg version="1.1" id="Layer_1" xmlns="http://www.w3.org/2000/svg" xmlns:xlink="http://www.w3.org/1999/xlink" x="0px" y="0px"
	 width="1043.391px" height="144.326px" viewBox="0 0 1043.391 144.326" enable-background="new 0 0 1043.391 144.326"
	 xml:space="preserve">
<g>
	<defs>
		<rect id="SVGID_1_" width="1043.391" height="144.326"/>
	</defs>
	<clipPath id="SVGID_2_">
		<use xlink:href="#SVGID_1_"  overflow="visible"/>
	</clipPath>
	<path clip-path="url(#SVGID_2_)" fill="#FFFFFF" d="M1013.726,17.472v35.854c-4.731-4.368-12.012-7.28-21.294-7.28
		c-25.298,0-44.408,20.566-44.408,53.69c0,25.662,14.015,44.59,36.582,44.59c13.104,0,21.841-7.279,29.12-16.744l-0.728,16.744
		h2.729l27.664-6.734v-3.822l-4.731-0.545c-8.191-0.91-8.556-2.185-8.556-8.373V0h-2.183l-26.026,9.1v2.002L1013.726,17.472z
		 M992.432,51.142c12.376,0,21.294,10.192,21.294,26.754v45.5c-5.277,5.824-12.193,8.918-20.93,8.918
		c-19.292,0-29.302-17.654-29.302-39.858C963.494,67.704,974.778,51.142,992.432,51.142 M897.793,144.326
		c24.206,0,43.316-20.202,43.316-51.506c0-27.482-16.744-46.774-42.225-46.774c-24.206,0-43.315,20.202-43.315,51.506
		C855.569,125.398,872.312,144.326,897.793,144.326 M898.703,138.685c-17.654,0-25.844-21.658-25.844-45.683
		c0-24.57,8.918-41.314,25.115-41.314c17.654,0,25.845,21.658,25.845,45.682C923.819,121.939,914.901,138.685,898.703,138.685
		 M805.339,144.326c24.206,0,43.316-20.202,43.316-51.506c0-27.482-16.744-46.774-42.225-46.774
		c-24.206,0-43.315,20.202-43.315,51.506C763.115,125.398,779.859,144.326,805.339,144.326 M806.249,138.685
		c-17.654,0-25.844-21.658-25.844-45.683c0-24.57,8.918-41.314,25.115-41.314c17.654,0,25.845,21.658,25.845,45.682
		C831.365,121.939,822.447,138.685,806.249,138.685 M748.011,0h-2.184l-14.378,5.824C725.625,2.002,719.073,0,710.883,0
		c-20.02,0-34.58,12.376-34.58,34.58v12.194l-13.468,5.46v2.548h13.468v73.892c0,7.098-2.912,8.555-12.558,9.101v4.731h41.496
		v-4.731c-9.646-0.546-12.559-2.003-12.559-9.101V54.782h23.479v-6.916h-23.479V30.03c0-17.29,5.824-25.48,17.836-25.48
		c11.103,0,17.654,7.462,21.112,16.016v108.107c0,7.098-2.912,8.555-12.558,9.101v4.731h41.496v-4.731
		c-9.646-0.546-12.559-2.003-12.559-9.101V0z M590.766,51.87c14.196,0,19.838,12.376,19.838,28.756H566.56
		C568.38,64.428,576.752,51.87,590.766,51.87 M592.222,46.046c-23.478,0-40.95,22.022-40.95,51.87
		c0,25.48,14.742,46.41,40.587,46.41c18.928,0,31.485-11.466,35.854-27.3l-2.184-1.093c-6.37,10.011-14.196,16.199-27.301,16.199
		c-18.928,0-33.487-16.744-32.214-46.229h60.424v-3.822C626.438,61.698,614.608,46.046,592.222,46.046 M462.456,128.674
		c0,7.098-2.911,8.555-12.557,9.101v4.731h41.494v-4.731c-9.646-0.546-12.558-2.003-12.558-9.101v-60.97
		c6.917-6.006,15.834-11.102,25.116-11.102c10.737,0,16.198,5.642,16.198,19.111v52.961c0,7.098-2.912,8.555-12.559,9.101v4.731
		h41.496v-4.731c-9.646-0.546-12.558-2.003-12.558-9.101V75.895c0-19.656-7.826-29.848-24.57-29.848
		c-14.014,0-24.569,7.826-33.124,17.29V0h-2.184l-26.026,9.1v2.002l11.83,6.37V128.674z M420.051,25.298h-3.64
		c-6.006,11.466-14.378,21.294-24.752,26.936v2.548h12.376v62.972c0,19.475,10.01,26.572,23.114,26.572
		c11.283,0,19.292-6.552,24.023-13.468l-1.638-2.185c-4.914,3.641-8.736,5.278-14.378,5.278c-10.192,0-15.106-5.46-15.106-18.928
		V54.782h26.026v-6.916h-26.026V25.298z M329.236,75.895c10.191-12.376,17.836-13.286,28.938-13.286h2.548v-13.65
		c-1.273-1.638-3.64-2.912-6.916-2.912c-10.191,0-14.56,7.28-24.569,25.844l0.728-25.844h-2.184l-26.754,9.1v2.002l11.83,6.37
		v65.156c0,7.098-2.912,8.555-12.559,9.101v4.731h45.136v-4.731c-12.012-0.546-16.197-2.003-16.197-9.101V75.895z M260.988,51.87
		c14.195,0,19.838,12.376,19.838,28.756h-44.044C238.602,64.428,246.974,51.87,260.988,51.87 M262.444,46.046
		c-23.479,0-40.95,22.022-40.95,51.87c0,25.48,14.742,46.41,40.586,46.41c18.928,0,31.486-11.466,35.854-27.3l-2.184-1.093
		c-6.37,10.011-14.196,16.199-27.3,16.199c-18.928,0-33.488-16.744-32.214-46.229h60.424v-3.822
		C296.66,61.698,284.83,46.046,262.444,46.046 M191.281,25.298h-3.641c-6.006,11.466-14.378,21.294-24.752,26.936v2.548h12.376
		v62.972c0,19.475,10.011,26.572,23.114,26.572c11.284,0,19.292-6.552,24.024-13.468l-1.639-2.185
		c-4.914,3.641-8.735,5.278-14.378,5.278c-10.191,0-15.105-5.46-15.105-18.928V54.782h26.025v-6.916h-26.025V25.298z
		 M146.692,54.782h23.478v-6.916h-23.478V24.388c0-13.104,4.367-20.02,12.012-20.02c6.37,0,8.736,4.732,8.736,11.648
		c0,2.548-0.183,4.368-0.547,6.188h9.465c3.275-1.82,5.277-5.096,5.277-9.1C181.636,4.55,175.084,0,162.526,0
		c-19.656,0-32.215,12.194-32.215,34.58v12.194l-13.468,5.46v2.548h13.468v73.892c0,7.098-2.911,8.555-12.558,9.101v4.731h45.136
		v-4.731c-12.012-0.546-16.197-2.003-16.197-9.101V54.782z M56.238,32.76l24.023,59.15H32.942L56.238,32.76z M92.82,122.486
		c1.092,2.73,1.819,5.096,1.819,7.279c0,5.643-4.186,7.463-16.38,7.826v4.914h46.592v-4.914c-4.913-0.728-8.735-1.82-10.737-6.733
		L65.702,13.104h-18.2l5.096,12.012L10.738,130.858c-1.82,4.913-5.642,6.006-10.738,6.733v4.914h35.854v-4.914
		c-12.376-0.363-16.562-2.365-16.562-8.008c0-2.002,0.728-4.55,1.82-7.279l9.646-24.57h51.87L92.82,122.486z"/>
</g>
</svg>
